<?xml version="1.0" encoding="UTF-8"?>
<svg xmlns="http://www.w3.org/2000/svg" xmlns:xlink="http://www.w3.org/1999/xlink" width="px" height="235px" viewBox="0 0 293 235" version="1.1">
<g id="surface1">
<path style=" stroke:none;fill-rule:nonzero;fill:rgb(17.647059%,5.882353%,41.176471%);fill-opacity:1;" d="M 73.25 29.375 C 73.25 13.171875 86.390625 0 102.550781 0 L 263.699219 0 C 279.859375 0 293 13.171875 293 29.375 L 293 161.5625 C 293 177.765625 279.859375 190.9375 263.699219 190.9375 L 154.191406 190.9375 C 148.789062 179.234375 140.503906 169.136719 130.203125 161.5625 L 175.800781 161.5625 L 175.800781 146.875 C 175.800781 138.75 182.347656 132.1875 190.449219 132.1875 L 219.75 132.1875 C 227.851562 132.1875 234.398438 138.75 234.398438 146.875 L 234.398438 161.5625 L 263.699219 161.5625 L 263.699219 29.375 L 102.550781 29.375 L 102.550781 51.910156 C 93.941406 46.90625 83.917969 44.0625 73.25 44.0625 Z M 73.25 58.75 C 97.523438 58.75 117.199219 78.476562 117.199219 102.8125 C 117.199219 127.148438 97.523438 146.875 73.25 146.875 C 48.976562 146.875 29.300781 127.148438 29.300781 102.8125 C 29.300781 78.476562 48.976562 58.75 73.25 58.75 Z M 61.027344 161.5625 L 85.429688 161.5625 C 119.167969 161.5625 146.5 188.964844 146.5 222.746094 C 146.5 229.492188 141.050781 235 134.277344 235 L 12.222656 235 C 5.449219 235 0 229.539062 0 222.746094 C 0 188.964844 27.332031 161.5625 61.027344 161.5625 Z M 61.027344 161.5625 "/>
</g>
</svg>
