<?xml version="1.0" encoding="UTF-8"?>
<svg xmlns="http://www.w3.org/2000/svg" xmlns:xlink="http://www.w3.org/1999/xlink" width="46px" height="46px" viewBox="0 0 46 46" version="1.1">
<g id="surface1">
<path style=" stroke:none;fill-rule:nonzero;fill:rgb(0%,0%,0%);fill-opacity:1;" d="M 23 46 C 35.703125 46 46 35.703125 46 23 C 46 10.296875 35.703125 0 23 0 C 10.296875 0 0 10.296875 0 23 C 0 35.703125 10.296875 46 23 46 Z M 33.152344 18.777344 L 21.652344 30.277344 C 20.808594 31.121094 19.441406 31.121094 18.605469 30.277344 L 12.855469 24.527344 C 12.011719 23.683594 12.011719 22.316406 12.855469 21.480469 C 13.703125 20.644531 15.066406 20.636719 15.902344 21.480469 L 20.125 25.703125 L 30.097656 15.722656 C 30.941406 14.878906 32.308594 14.878906 33.144531 15.722656 C 33.980469 16.566406 33.988281 17.933594 33.144531 18.769531 Z M 33.152344 18.777344 "/>
</g>
</svg>
