<?xml version="1.0" encoding="UTF-8"?>
<svg xmlns="http://www.w3.org/2000/svg" xmlns:xlink="http://www.w3.org/1999/xlink" width="46px" height="46px" viewBox="0 0 46 46" version="1.1">
<g id="surface1">
<path style=" stroke:none;fill-rule:nonzero;fill:rgb(0%,0%,0%);fill-opacity:1;" d="M 0 7.1875 C 0 4.804688 1.71875 2.875 3.832031 2.875 L 11.5 2.875 C 13.617188 2.875 15.332031 4.804688 15.332031 7.1875 L 15.332031 8.625 L 30.667969 8.625 L 30.667969 7.1875 C 30.667969 4.804688 32.382812 2.875 34.5 2.875 L 42.167969 2.875 C 44.28125 2.875 46 4.804688 46 7.1875 L 46 15.8125 C 46 18.195312 44.28125 20.125 42.167969 20.125 L 34.5 20.125 C 32.382812 20.125 30.667969 18.195312 30.667969 15.8125 L 30.667969 14.375 L 15.332031 14.375 L 15.332031 15.8125 C 15.332031 15.964844 15.324219 16.117188 15.308594 16.261719 L 21.722656 25.875 L 29.390625 25.875 C 31.503906 25.875 33.222656 27.804688 33.222656 30.1875 L 33.222656 38.8125 C 33.222656 41.195312 31.503906 43.125 29.390625 43.125 L 21.722656 43.125 C 19.605469 43.125 17.890625 41.195312 17.890625 38.8125 L 17.890625 30.1875 C 17.890625 30.035156 17.898438 29.882812 17.914062 29.738281 L 11.5 20.125 L 3.832031 20.125 C 1.71875 20.125 0 18.195312 0 15.8125 Z M 0 7.1875 "/>
</g>
</svg>
