<?xml version="1.0" encoding="UTF-8"?>
<svg xmlns="http://www.w3.org/2000/svg" xmlns:xlink="http://www.w3.org/1999/xlink" width="px" height="235px" viewBox="0 0 293 235" version="1.1">
<g id="surface1">
<path style=" stroke:none;fill-rule:nonzero;fill:rgb(17.647059%,5.490196%,41.176471%);fill-opacity:1;" d="M 29.300781 44.0625 C 29.300781 27.859375 42.4375 14.6875 58.601562 14.6875 L 234.398438 14.6875 C 250.5625 14.6875 263.699219 27.859375 263.699219 44.0625 L 263.699219 161.5625 L 234.398438 161.5625 L 234.398438 44.0625 L 58.601562 44.0625 L 58.601562 161.5625 L 29.300781 161.5625 Z M 0 185.0625 C 0 180.195312 3.9375 176.25 8.789062 176.25 L 284.210938 176.25 C 289.0625 176.25 293 180.195312 293 185.0625 C 293 204.523438 277.25 220.3125 257.839844 220.3125 L 35.160156 220.3125 C 15.75 220.3125 0 204.523438 0 185.0625 Z M 128.644531 95.929688 L 114.453125 110.15625 L 128.644531 124.382812 C 132.949219 128.699219 132.949219 135.675781 128.644531 139.945312 C 124.34375 144.210938 117.382812 144.257812 113.125 139.945312 L 91.152344 117.914062 C 86.847656 113.597656 86.847656 106.621094 91.152344 102.351562 L 113.125 80.320312 C 117.429688 76.007812 124.386719 76.007812 128.644531 80.320312 C 132.902344 84.636719 132.949219 91.613281 128.644531 95.882812 Z M 179.921875 80.320312 L 201.894531 102.351562 C 206.199219 106.667969 206.199219 113.644531 201.894531 117.914062 L 179.921875 139.945312 C 175.617188 144.257812 168.65625 144.257812 164.402344 139.945312 C 160.144531 135.628906 160.097656 128.652344 164.402344 124.382812 L 178.59375 110.15625 L 164.402344 95.929688 C 160.097656 91.613281 160.097656 84.636719 164.402344 80.367188 C 168.703125 76.097656 175.664062 76.054688 179.921875 80.367188 Z M 179.921875 80.320312 "/>
</g>
</svg>
