<?xml version="1.0" encoding="UTF-8"?>
<svg xmlns="http://www.w3.org/2000/svg" xmlns:xlink="http://www.w3.org/1999/xlink" width="46px" height="46px" viewBox="0 0 46 36" version="1.1">
<g id="surface1">
<path style=" stroke:none;fill-rule:nonzero;fill:rgb(0%,0%,0%);fill-opacity:1;" d="M 4.601562 6.75 C 4.601562 4.269531 6.664062 2.25 9.199219 2.25 L 36.800781 2.25 C 39.335938 2.25 41.398438 4.269531 41.398438 6.75 L 41.398438 24.75 L 36.800781 24.75 L 36.800781 6.75 L 9.199219 6.75 L 9.199219 24.75 L 4.601562 24.75 Z M 0 28.351562 C 0 27.605469 0.617188 27 1.378906 27 L 44.621094 27 C 45.382812 27 46 27.605469 46 28.351562 C 46 31.332031 43.527344 33.75 40.480469 33.75 L 5.519531 33.75 C 2.472656 33.75 0 31.332031 0 28.351562 Z M 20.195312 14.695312 L 17.96875 16.875 L 20.195312 19.054688 C 20.871094 19.714844 20.871094 20.785156 20.195312 21.4375 C 19.519531 22.09375 18.429688 22.097656 17.761719 21.4375 L 14.308594 18.0625 C 13.632812 17.402344 13.632812 16.332031 14.308594 15.679688 L 17.761719 12.304688 C 18.4375 11.644531 19.527344 11.644531 20.195312 12.304688 C 20.867188 12.964844 20.871094 14.035156 20.195312 14.6875 Z M 28.246094 12.304688 L 31.695312 15.679688 C 32.371094 16.339844 32.371094 17.410156 31.695312 18.0625 L 28.246094 21.4375 C 27.570312 22.097656 26.480469 22.097656 25.808594 21.4375 C 25.140625 20.777344 25.132812 19.707031 25.808594 19.054688 L 28.039062 16.875 L 25.808594 14.695312 C 25.132812 14.035156 25.132812 12.964844 25.808594 12.3125 C 26.484375 11.65625 27.578125 11.652344 28.246094 12.3125 Z M 28.246094 12.304688 "/>
</g>
</svg>
