<?xml version="1.0" encoding="UTF-8"?>
<svg xmlns="http://www.w3.org/2000/svg" xmlns:xlink="http://www.w3.org/1999/xlink" width="px" height="235px" viewBox="0 0 176 234" version="1.1">
<g id="surface1">
<path style=" stroke:none;fill-rule:nonzero;fill:rgb(17.647059%,5.882353%,41.176471%);fill-opacity:1;" d="M 124.667969 175.5 C 129.066406 160.921875 138.1875 148.488281 147.214844 136.105469 C 149.601562 132.859375 151.984375 129.613281 154.273438 126.324219 C 163.351562 113.296875 168.667969 97.53125 168.667969 80.484375 C 168.667969 36.015625 132.550781 0 88 0 C 43.449219 0 7.332031 36.015625 7.332031 80.4375 C 7.332031 97.484375 12.648438 113.296875 21.726562 126.277344 C 24.015625 129.570312 26.398438 132.8125 28.785156 136.058594 C 37.859375 148.445312 46.980469 160.921875 51.332031 175.453125 L 124.667969 175.453125 Z M 88 234 C 108.257812 234 124.667969 217.636719 124.667969 197.4375 L 124.667969 190.125 L 51.332031 190.125 L 51.332031 197.4375 C 51.332031 217.636719 67.742188 234 88 234 Z M 51.332031 80.4375 C 51.332031 84.460938 48.035156 87.75 44 87.75 C 39.964844 87.75 36.667969 84.460938 36.667969 80.4375 C 36.667969 52.148438 59.628906 29.25 88 29.25 C 92.035156 29.25 95.332031 32.539062 95.332031 36.5625 C 95.332031 40.585938 92.035156 43.875 88 43.875 C 67.742188 43.875 51.332031 60.238281 51.332031 80.4375 Z M 51.332031 80.4375 "/>
</g>
</svg>
