<?xml version="1.0" encoding="UTF-8"?>
<svg xmlns="http://www.w3.org/2000/svg" xmlns:xlink="http://www.w3.org/1999/xlink" width="46px" height="46px" viewBox="0 0 46 46" version="1.1">
<g id="surface1">
<path style=" stroke:none;fill-rule:nonzero;fill:rgb(0%,0%,0%);fill-opacity:1;" d="M 31.183594 2.210938 C 31.875 0.539062 33.699219 -0.351562 35.445312 0.125 L 43.351562 2.28125 C 44.914062 2.714844 46 4.132812 46 5.75 C 46 27.976562 27.976562 46 5.75 46 C 4.132812 46 2.714844 44.914062 2.28125 43.351562 L 0.125 35.445312 C -0.351562 33.699219 0.539062 31.875 2.210938 31.183594 L 10.835938 27.589844 C 12.300781 26.980469 13.996094 27.402344 14.996094 28.632812 L 18.625 33.0625 C 24.949219 30.070312 30.070312 24.949219 33.0625 18.625 L 28.632812 15.003906 C 27.402344 13.996094 26.980469 12.308594 27.589844 10.84375 L 31.183594 2.21875 Z M 31.183594 2.210938 "/>
</g>
</svg>
